{"title":"Red White and Blue 2010 720p BluRay DTS x264-DNL","uid":6499239,"size":4653887426,"categoryP":"video","categoryS":"hd___movies","magnet":"?xt=urn:btih:9b598e287c0438e138188995b9f38c4228098964&amp;dn=Red+White+and+Blue+2010+720p+BluRay+DTS+x264-DNL&amp;tr=udp%3A%2F%2Ftracker.openbittorrent.com%3A80&amp;tr=udp%3A%2F%2Fopen.demonii.com%3A1337&amp;tr=udp%3A%2F%2Ftracker.coppersurfer.tk%3A6969&amp;tr=udp%3A%2F%2Fexodus.desync.com%3A6969","seeders":1,"leechers":2,"uploader":"TPBAgri","files":-1,"time":1309187624,"description":"Film follows the cool, emotionless Erica, who dives into bed with any man she meets. When she is offered a job in a DIY store in Austin, she discovers the kindness of strangers, but also the gruesome shadowy side of it.\n\n\n\n\nFormat                           : Matroska\nFile size                        : 4.33 GiB\nDuration                         : 1h 40mn\nOverall bit rate                 : 6 203 Kbps\n\nVideo\nID                               : 1\nFormat                           : AVC\nFormat/Info                      : Advanced Video Codec\nFormat profile                   : &lt;a class=&quot;__cf_email__&quot; href=&quot;/cdn-cgi/l/email-protection&quot; data-cfemail=&quot;c981a0aea18985fde7f8&quot;&gt;[email&amp;#160;protected]&lt;/a&gt;&lt;script cf-hash='f9e31' type=&quot;text/javascript&quot;&gt;\n/* &lt;![CDATA[ */!function(){try{var t=&quot;currentScript&quot;in document?document.currentScript:function(){for(var t=document.getElementsByTagName(&quot;script&quot;),e=t.length;e--;)if(t[e].getAttribute(&quot;cf-hash&quot;))return t[e]}();if(t&amp;&amp;t.previousSibling){var e,r,n,i,c=t.previousSibling,a=c.getAttribute(&quot;data-cfemail&quot;);if(a){for(e=&quot;&quot;,r=parseInt(a.substr(0,2),16),n=2;a.length-n;n+=2)i=parseInt(a.substr(n,2),16)^r,e+=String.fromCharCode(i);e=document.createTextNode(e),c.parentNode.replaceChild(e,c)}}}catch(u){}}();/* ]]&gt; */&lt;/script&gt;\nFormat settings, CABAC           : Yes\nFormat settings, ReFrames        : 8 frames\nMuxing mode                      : Header stripping\nCodec ID                         : V_MPEG4/ISO/AVC\nDuration                         : 1h 40mn\nBit rate mode                    : Variable\nBit rate                         : 4 695 Kbps\nMaximum bit rate                 : 25.0 Mbps\nWidth                            : 1 280 pixels\nHeight                           : 544 pixels\nDisplay aspect ratio             : 2.35:1\nFrame rate                       : 25.000 fps\nColor space                      : YUV\nChroma subsampling               : 4:2:0\nBit depth                        : 8 bits\nScan type                        : Progressive\nBits/(Pixel*Frame)               : 0.270\nStream size                      : 3.19 GiB (74%)\nWriting library                  : x264 core 114 r1924 08d04a4\n\n\nAudio\nID                               : 2\nFormat                           : DTS\nFormat/Info                      : Digital Theater Systems\nMuxing mode                      : Header stripping\nCodec ID                         : A_DTS\nDuration                         : 1h 40mn\nBit rate mode                    : Constant\nBit rate                         : 1 510 Kbps\nChannel(s)                       : 6 channels\nChannel positions                : Front: L C R, Side: L R, LFE\nSampling rate                    : 48.0 KHz\nBit depth                        : 24 bits\nCompression mode                 : Lossy\nStream size                      : 1.05 GiB (24%)","torrent":{"xt":"urn:btih:9b598e287c0438e138188995b9f38c4228098964","amp;dn":"Red+White+and+Blue+2010+720p+BluRay+DTS+x264-DNL","amp;tr":["udp%3A%2F%2Ftracker.openbittorrent.com%3A80","udp%3A%2F%2Fopen.demonii.com%3A1337","udp%3A%2F%2Ftracker.coppersurfer.tk%3A6969","udp%3A%2F%2Fexodus.desync.com%3A6969"],"infoHash":"9b598e287c0438e138188995b9f38c4228098964","infoHashBuffer":{"type":"Buffer","data":[155,89,142,40,124,4,56,225,56,24,137,149,185,243,140,66,40,9,137,100]},"announce":[],"urlList":[]}}